<svg width="60" height="56" viewBox="0 0 60 56" fill="none" xmlns="http://www.w3.org/2000/svg">
<g clip-path="url(#clip0_204_212)">
<path d="M47.4643 2.4093H12.4906C9.17912 2.41294 6.00438 3.62132 3.6628 5.76939C1.32121 7.91746 0.00396666 10.8298 0 13.8676L0 41.3676C0.00396666 44.4055 1.32121 47.3178 3.6628 49.4659C6.00438 51.614 9.17912 52.8223 12.4906 52.826H47.4643C50.7758 52.8223 53.9506 51.614 56.2922 49.4659C58.6337 47.3178 59.951 44.4055 59.955 41.3676V13.8676C59.951 10.8298 58.6337 7.91746 56.2922 5.76939C53.9506 3.62132 50.7758 2.41294 47.4643 2.4093ZM12.4906 6.99264H47.4643C48.9602 6.99533 50.4209 7.40861 51.6586 8.17927C52.8962 8.94993 53.8542 10.0427 54.4091 11.317L35.2785 28.8689C33.8706 30.1552 31.9645 30.8775 29.9775 30.8775C27.9904 30.8775 26.0843 30.1552 24.6765 28.8689L5.54583 11.317C6.10079 10.0427 7.05873 8.94993 8.29638 8.17927C9.53404 7.40861 10.9948 6.99533 12.4906 6.99264ZM47.4643 48.2426H12.4906C10.503 48.2426 8.59676 47.5183 7.1913 46.229C5.78583 44.9397 4.99625 43.191 4.99625 41.3676V17.3051L21.1441 32.1093C23.4889 34.2549 26.6656 35.4598 29.9775 35.4598C33.2893 35.4598 36.466 34.2549 38.8108 32.1093L54.9587 17.3051V41.3676C54.9587 43.191 54.1691 44.9397 52.7637 46.229C51.3582 47.5183 49.452 48.2426 47.4643 48.2426Z" fill="black" fill-opacity="0.7"/>
</g>
<defs>
<clipPath id="clip0_204_212">
<rect width="59.955" height="55" fill="white" transform="translate(0 0.117645)"/>
</clipPath>
</defs>
</svg>
