<svg width="55" height="58" viewBox="0 0 55 58" fill="none" xmlns="http://www.w3.org/2000/svg">
<g clip-path="url(#clip0_204_214)">
<path d="M17.199 57.9636C13.0505 57.9608 9.04296 56.3831 5.91586 53.5217C2.78877 50.6602 0.753155 46.7081 0.184653 42.3947C-0.383848 38.0812 0.553126 33.6974 2.82268 30.0523C5.09223 26.4072 8.5412 23.7467 12.5332 22.5618C15.4347 21.6896 18.5059 21.6498 21.4271 22.4464L39.5496 3.42846C40.5117 2.41162 41.6565 1.60542 42.9177 1.05663C44.1789 0.507842 45.5314 0.227393 46.8967 0.231552C49.0453 0.233463 51.1053 1.13023 52.6246 2.72497C54.1439 4.31971 54.9982 6.4821 55 8.7374C55.0036 10.1706 54.7365 11.5903 54.2141 12.9144C53.6917 14.2386 52.9245 15.4409 51.9567 16.4518L50.4167 18.0683C49.555 18.9667 48.3907 19.4723 47.1763 19.4756H43.5417V21.8811C43.5417 23.157 43.0588 24.3807 42.1993 25.283C41.3397 26.1852 40.1739 26.6921 38.9584 26.6921H36.6667V30.5072C36.6683 31.1392 36.5505 31.7653 36.32 32.3491C36.0894 32.933 35.7508 33.463 35.3238 33.9086L33.8342 35.4721C34.5972 38.537 34.56 41.761 33.7265 44.8055C32.7885 48.2742 30.8855 51.3701 28.2612 53.6967C25.6368 56.0233 22.4106 57.4747 18.9957 57.865C18.3988 57.9301 17.7991 57.963 17.199 57.9636ZM17.199 26.6921C14.8527 26.6897 12.5523 27.3748 10.5568 28.6703C8.5613 29.9658 6.94993 31.8203 5.90406 34.025C4.85819 36.2296 4.41934 38.697 4.63693 41.1492C4.85451 43.6015 5.71989 45.9413 7.13563 47.9053C8.55138 49.8693 10.4613 51.3795 12.6504 52.266C14.8395 53.1524 17.2208 53.3798 19.5264 52.9227C21.8319 52.4655 23.9701 51.3419 25.7003 49.6783C27.4305 48.0148 28.684 45.8773 29.3196 43.5065C30.0346 40.9002 29.9545 38.1244 29.0905 35.5684C28.9494 35.1415 28.9258 34.6816 29.0223 34.2412C29.1187 33.8009 29.3314 33.398 29.6359 33.0787L32.0834 30.5072V26.6921C32.0834 25.4161 32.5663 24.1924 33.4258 23.2902C34.2853 22.3879 35.4511 21.8811 36.6667 21.8811H38.9584V19.4756C38.9584 18.1996 39.4412 16.9759 40.3008 16.0737C41.1603 15.1714 42.3261 14.6646 43.5417 14.6646H47.1763L48.7163 13.0481C49.257 12.4831 49.6857 11.8113 49.9776 11.0714C50.2694 10.3315 50.4187 9.53822 50.4167 8.7374C50.4161 7.75808 50.0454 6.81902 49.3859 6.1263C48.7264 5.43359 47.832 5.04383 46.899 5.04255C46.1355 5.04059 45.3793 5.19753 44.674 5.50432C43.9687 5.8111 43.3284 6.26163 42.79 6.82984L23.6982 26.8677C23.3935 27.1873 23.0091 27.4103 22.5892 27.5112C22.1693 27.612 21.7308 27.5866 21.324 27.4378C19.995 26.9466 18.5965 26.6945 17.1875 26.6921H17.199ZM11.4584 43.5306C11.4584 44.0063 11.5928 44.4714 11.8446 44.867C12.0964 45.2626 12.4543 45.5709 12.873 45.753C13.2918 45.935 13.7526 45.9827 14.1971 45.8899C14.6417 45.797 15.05 45.5679 15.3705 45.2315C15.691 44.8951 15.9092 44.4665 15.9977 43.9999C16.0861 43.5332 16.0407 43.0496 15.8673 42.61C15.6938 42.1705 15.4001 41.7948 15.0232 41.5305C14.6463 41.2662 14.2033 41.1251 13.75 41.1251C13.1422 41.1251 12.5593 41.3785 12.1296 41.8296C11.6998 42.2807 11.4584 42.8926 11.4584 43.5306Z" fill="black" fill-opacity="0.7"/>
</g>
<defs>
<clipPath id="clip0_204_214">
<rect width="55" height="57.732" fill="white" transform="translate(0 0.231628)"/>
</clipPath>
</defs>
</svg>
