<svg width="530" height="170" viewBox="0 0 530 170" fill="none" xmlns="http://www.w3.org/2000/svg">
<path d="M130.216 58.1579L155.345 80.5263L214.741 11.1842" stroke="#95E842" stroke-width="10" stroke-linecap="round" stroke-linejoin="round"/>
<path d="M61.8684 52.4674C61.8684 60.1979 58.067 66.7474 50.4642 72.1158C42.9346 77.4842 32.956 81.3495 20.5284 83.7116C15.1918 101.392 12.0118 110.232 10.9884 110.232C9.96494 110.232 8.75873 109.444 7.36976 107.869C5.9808 106.223 5.28632 104.613 5.28632 103.038C5.28632 101.392 6.34632 97.0968 8.46632 90.1537C15.0456 68.7516 18.4815 53.8274 18.7739 45.3811C17.0194 43.8063 16.1422 42.3747 16.1422 41.0863C16.1422 39.2968 18.6277 37.579 23.5987 35.9326C28.5698 34.2863 33.3215 33.4632 37.8539 33.4632C44.8718 33.4632 50.6105 35.2168 55.0698 38.7242C59.6022 42.2316 61.8684 46.8126 61.8684 52.4674ZM52.2187 53.1116C52.2187 49.9621 50.976 47.3853 48.4905 45.3811C46.078 43.3053 43.1539 42.2674 39.718 42.2674C36.2822 42.2674 32.1153 43.3411 27.2173 45.4884C27.9484 47.0632 28.3139 48.5305 28.3139 49.8905C28.3139 53.899 26.5229 62.3811 22.9408 75.3368C31.7132 73.0463 38.7677 69.8968 44.1042 65.8884C49.5139 61.8084 52.2187 57.5495 52.2187 53.1116ZM71.0762 110.124C69.9797 110.124 68.7369 109.337 67.3475 107.762C65.959 106.187 65.2645 104.613 65.2645 103.038C65.2645 101.392 67.2748 93.6253 71.2955 79.7389C75.3162 65.8526 77.619 55.2947 78.2038 48.0653C77.2535 47.4926 76.4128 46.5979 75.6817 45.3811C74.9507 44.1642 74.5847 43.0905 74.5847 42.16C74.5847 40.5137 77.0707 38.8316 82.0417 37.1137C87.0128 35.3242 92.4955 34.4295 98.49 34.4295C104.558 34.4295 109.785 35.8611 114.171 38.7242C118.63 41.5158 120.86 45.4884 120.86 50.6421C120.86 54.1495 119.836 57.4421 117.789 60.52C115.816 63.5263 113.367 65.9958 110.442 67.9284C107.591 69.8611 104.74 71.579 101.889 73.0821C99.0383 74.5853 96.5893 75.8379 94.5424 76.84C92.5686 77.7705 91.5817 78.4505 91.5817 78.88C91.5817 80.4547 92.8245 82.4947 95.31 85C97.8686 87.5053 99.6597 89.2232 100.683 90.1537C101.707 91.0842 103.059 92.3369 104.74 93.9116C106.422 95.4147 107.993 96.7747 109.456 97.9916C110.991 99.2084 112.197 100.211 113.074 100.998C114.024 101.785 114.975 102.608 115.925 103.467C117.753 105.114 118.667 106.438 118.667 107.44C118.667 109.158 117.46 110.017 115.048 110.017C110.662 110.017 104.411 106.295 96.2969 98.8505C88.1824 91.3347 83.2114 84.9642 81.3838 79.7389C77.9479 90.9053 75.9742 97.3832 75.4624 99.1726C74.9507 100.891 74.3659 102.68 73.7079 104.541C72.5383 108.263 71.661 110.124 71.0762 110.124ZM87.6341 50.9642C87.6341 55.6168 86.099 63.3116 83.0286 74.0484C84.2714 73.1179 86.6473 71.7579 90.1562 69.9684C93.6652 68.1074 96.8086 66.4253 99.5866 64.9221C102.438 63.3474 105.033 61.2716 107.372 58.6947C109.711 56.1179 110.881 53.4337 110.881 50.6421C110.881 46.2042 106.933 43.9853 99.0383 43.9853C95.4562 43.9853 91.2893 44.88 86.5376 46.6695C87.2686 48.2442 87.6341 49.6758 87.6341 50.9642ZM161.43 95.2C166.255 90.9769 170.385 85.7874 173.821 79.6316C177.257 73.4042 178.975 67.5347 178.975 62.0232C178.975 56.5116 177.879 52.0379 175.685 48.6021C173.565 45.1663 171.043 43.4484 168.119 43.4484C165.195 43.4484 161.54 45.6674 157.154 50.1053C152.767 54.5432 148.82 60.3769 145.311 67.6063C141.802 74.7642 140.048 81.6358 140.048 88.2211C140.048 92.1579 140.925 95.379 142.679 97.8842C144.434 100.318 146.481 101.535 148.82 101.535C152.475 101.535 156.679 99.4232 161.43 95.2ZM148.162 110.017C143.337 110.017 139.097 107.691 135.442 103.038C131.86 98.3853 130.069 93.6611 130.069 88.8653C130.069 82.3516 131.275 75.7305 133.688 69.0021C136.173 62.2737 139.243 56.4042 142.899 51.3937C146.627 46.3832 150.721 42.3032 155.18 39.1537C159.639 35.9326 163.77 34.3221 167.571 34.3221C173.712 34.3221 178.829 37.0779 182.923 42.5895C187.016 48.0295 189.063 54.1853 189.063 61.0568C189.063 67.9284 187.126 75.1579 183.252 82.7453C179.377 90.2611 174.187 96.7032 167.681 102.072C161.247 107.368 154.741 110.017 148.162 110.017ZM207.955 34.4295C214.826 34.4295 222.137 36.1832 229.886 39.6905C237.708 43.1979 244.433 48.0653 250.062 54.2926C255.691 60.4484 258.506 66.8547 258.506 73.5116C258.506 77.8779 255.399 83.0316 249.185 88.9726C243.044 94.8421 235.917 99.8884 227.802 104.112C219.688 108.263 212.962 110.339 207.626 110.339C206.237 110.339 204.628 109.194 202.801 106.903C201.046 104.541 200.169 102.179 200.169 99.8168C200.169 97.3832 202.289 88.7221 206.529 73.8337C210.769 58.9453 213.072 49.139 213.437 44.4147C211.098 43.4842 209.234 42.2674 207.845 40.7642C206.456 39.2611 205.762 37.8295 205.762 36.4695C205.762 35.1095 206.493 34.4295 207.955 34.4295ZM248.417 72.3305C248.417 67.8926 245.713 63.0968 240.303 57.9432C234.893 52.7179 228.606 48.96 221.442 46.6695C221.808 47.9579 221.991 49.4968 221.991 51.2863C221.991 53.0042 221.333 56.2611 220.017 61.0568C218.774 65.8526 216.471 73.8695 213.108 85.1074C211.719 89.8316 210.586 95.0211 209.709 100.676C214.753 100.032 220.382 97.8842 226.596 94.2337C232.883 90.5116 238.073 86.539 242.167 82.3158C246.334 78.0926 248.417 74.7642 248.417 72.3305ZM304.29 59.9832C304.583 58.8379 304.875 58.0505 305.168 57.6211C305.46 57.1916 306.081 56.9768 307.032 56.9768C308.055 56.9768 309.261 57.9074 310.65 59.7684C312.112 61.6295 312.843 63.419 312.843 65.1368C312.843 66.0674 311.235 71.579 308.019 81.6716C304.802 91.7642 302.317 99.7811 300.562 105.722C299.685 108.728 298.442 110.232 296.834 110.232C295.883 110.232 295.079 109.838 294.421 109.051C293.763 108.263 293.434 106.832 293.434 104.756C293.434 102.68 294.275 98.9221 295.957 93.4821C292.886 98.3495 289.56 102.358 285.978 105.507C282.396 108.657 279.106 110.232 276.109 110.232C273.185 110.232 270.407 108.872 267.775 106.152C265.143 103.432 263.828 100.64 263.828 97.7769C263.828 90.9769 265.838 82.4947 269.859 72.3305C273.952 62.0947 277.352 56.9768 280.057 56.9768C281.372 56.9768 282.506 57.5853 283.456 58.8021C284.479 59.9474 284.991 61.2716 284.991 62.7747C284.991 63.4189 284.004 65.7453 282.03 69.7537C280.057 73.6905 278.083 78.3432 276.109 83.7116C274.135 89.0084 273.148 93.6611 273.148 97.6695C273.148 98.8147 273.514 99.7811 274.245 100.568C274.976 101.284 275.853 101.642 276.877 101.642C279.655 101.642 282.944 99.2442 286.746 94.4484C290.62 89.6526 294.129 84.0695 297.272 77.699C300.416 71.3284 302.755 65.4232 304.29 59.9832ZM335.92 110.232C331.68 110.232 327.696 108.621 323.968 105.4C320.239 102.107 318.375 98.2421 318.375 93.8042C318.375 89.2947 319.91 84.1053 322.981 78.2358C326.051 72.3663 329.999 67.3558 334.823 63.2042C339.721 59.0526 344.473 56.9768 349.079 56.9768C352.076 56.9768 354.708 58.3011 356.974 60.9495C359.24 63.5979 360.373 65.9242 360.373 67.9284C360.373 68.5011 360.19 69.0021 359.825 69.4316C359.459 69.7895 358.911 69.9684 358.18 69.9684C357.522 69.9684 356.316 69.3242 354.561 68.0358C352.807 66.7474 351.235 66.1032 349.846 66.1032C345.899 66.1032 341.293 69.5032 336.03 76.3032C330.766 83.1032 328.134 89.0442 328.134 94.1263C328.134 96.3453 328.829 98.099 330.218 99.3874C331.68 100.676 333.983 101.32 337.126 101.32C340.343 101.32 343.267 100.962 345.899 100.246C348.603 99.459 350.687 98.7074 352.149 97.9916C353.611 97.2042 354.744 96.8105 355.548 96.8105C356.937 96.8105 357.632 97.4905 357.632 98.8505C357.632 100.926 355.073 103.36 349.956 106.152C344.912 108.872 340.233 110.232 335.92 110.232ZM379.378 99.4947C379.378 100.855 380.182 101.535 381.79 101.535C384.568 101.535 387.931 100.783 391.878 99.28C395.899 97.7053 398.129 96.9179 398.567 96.9179C399.883 96.9179 400.541 97.5979 400.541 98.9579C400.541 101.034 398.348 103.432 393.962 106.152C389.649 108.872 385.701 110.232 382.119 110.232C378.61 110.232 375.686 109.301 373.347 107.44C371.007 105.507 369.838 103.539 369.838 101.535C369.838 99.5305 370.276 96.9895 371.154 93.9116C372.031 90.7621 373.274 86.6463 374.882 81.5642C376.563 76.4105 377.879 72.1516 378.829 68.7874C375.394 69.5747 373.091 69.9684 371.921 69.9684C370.751 69.9684 369.582 69.3958 368.412 68.2505C367.316 67.0337 366.767 65.8884 366.767 64.8147C366.767 63.0968 371.519 61.4505 381.023 59.8758C382.338 53.9347 382.996 48.6737 382.996 44.0926C382.996 41.9453 383.727 40.8716 385.189 40.8716C386.432 40.8716 387.967 41.659 389.795 43.2337C391.622 44.7368 392.536 46.4547 392.536 48.3874C392.536 50.32 391.915 53.72 390.672 58.5874C394.839 58.2295 398.165 58.0505 400.651 58.0505C405.037 58.0505 407.23 58.9811 407.23 60.8421C407.23 61.9158 406.024 62.8105 403.611 63.5263C401.272 64.2421 396.301 65.3516 388.698 66.8547C387.163 72.5095 385.226 78.9874 382.887 86.2884C380.547 93.5179 379.378 97.92 379.378 99.4947ZM423.538 41.7305C423.538 40.299 424.122 38.939 425.292 37.6505C426.462 36.3621 427.631 35.7179 428.801 35.7179C430.044 35.7179 431.506 37.1853 433.187 40.12C434.869 42.9832 435.709 45.3811 435.709 47.3137C435.709 48.0295 435.38 48.6737 434.722 49.2463C434.065 49.819 433.37 50.1053 432.639 50.1053C430.885 50.1053 428.911 49.0674 426.718 46.9916C424.598 44.9158 423.538 43.1621 423.538 41.7305ZM422.989 56.9768C424.378 56.9768 425.694 57.8 426.937 59.4463C428.18 61.0926 428.801 62.7032 428.801 64.2779C428.801 65.8526 427.741 70.5768 425.621 78.4505C423.501 86.2526 420.833 95.0211 417.616 104.756C416.374 108.335 414.802 110.124 412.901 110.124C411.878 110.124 411 109.731 410.269 108.943C409.538 108.084 409.173 107.154 409.173 106.152C409.173 105.078 409.429 103.432 409.94 101.213C410.525 98.9221 411.329 95.9158 412.353 92.1937C413.449 88.4 414.29 85.3221 414.875 82.96C415.533 80.5979 416.191 77.9495 416.849 75.0147C417.507 72.0084 418.018 69.6105 418.384 67.8211C418.822 65.96 419.298 64.099 419.809 62.2379C420.833 58.7305 421.893 56.9768 422.989 56.9768ZM443.526 110.446C442.576 110.446 441.552 109.766 440.456 108.406C439.359 107.046 438.811 105.937 438.811 105.078C438.811 104.219 439.176 102.537 439.907 100.032C443.562 87.1474 446.048 77.9495 447.364 72.4379C444.22 73.1537 442.064 73.5116 440.894 73.5116C439.725 73.5116 438.555 73.0105 437.385 72.0084C436.216 71.0063 435.631 69.8969 435.631 68.68C435.631 67.4632 437.276 66.3895 440.565 65.459C444.805 64.4568 447.729 63.8126 449.338 63.5263C450.069 60.0905 450.617 57.4421 450.982 55.5811C452.737 45.7032 455.113 38.5811 458.112 34.2147C461.109 29.8484 465.166 27.6653 470.284 27.6653C473.939 27.6653 476.936 29.0968 479.275 31.96C481.615 34.7516 482.784 38.08 482.784 41.9453C482.784 45.739 481.761 47.6358 479.714 47.6358C477.96 47.6358 476.534 45.7032 475.437 41.8379C475.072 40.4063 474.451 39.0821 473.573 37.8653C472.696 36.6484 471.636 36.04 470.393 36.04C469.151 36.04 468.017 36.6126 466.994 37.7579C465.971 38.8316 465.057 40.4063 464.253 42.4821C462.133 48.28 460.671 53.5768 459.866 58.3726L458.989 62.1305C461.694 61.7726 464.362 61.5937 466.994 61.5937C469.699 61.5937 471.636 61.88 472.806 62.4526C474.048 63.0253 474.67 63.7411 474.67 64.6C474.67 65.96 473.464 66.9979 471.051 67.7137C468.639 68.4295 463.924 69.36 456.906 70.5053C451.714 91.12 448.168 103.396 446.267 107.333C445.244 109.408 444.33 110.446 443.526 110.446ZM519.734 56.9768C520.903 56.9768 522.146 57.8358 523.462 59.5537C524.851 61.2 525.545 63.0611 525.545 65.1368C525.545 66.5684 524.047 71.4358 521.049 79.7389C518.052 88.0421 516.005 93.6968 514.909 96.7032C513.885 99.6379 512.46 103.575 510.632 108.514C508.878 113.381 507.16 118.141 505.478 122.794C501.823 133.029 496.34 138.147 489.03 138.147C484.863 138.147 480.879 136.895 477.078 134.389C473.276 131.956 471.376 129.415 471.376 126.766C471.376 125.764 471.851 124.655 472.801 123.438C473.678 122.221 474.446 121.613 475.104 121.613C475.762 121.613 476.822 122.4 478.284 123.975C482.524 128.699 486.143 131.061 489.14 131.061C491.406 131.061 493.453 129.093 495.28 125.156C497.108 121.291 498.826 116.888 500.434 111.949C502.116 107.082 503.029 104.398 503.176 103.897C503.395 103.396 503.614 102.752 503.834 101.964C504.126 101.177 504.382 100.461 504.601 99.8168C499.411 106.76 494.294 110.232 489.249 110.232C486.179 110.232 483.328 108.836 480.696 106.044C478.138 103.253 476.858 99.96 476.858 96.1663C476.858 92.3726 477.809 87.2547 479.709 80.8126C481.61 74.3705 483.84 68.7874 486.398 64.0632C488.957 59.339 491.04 56.9768 492.649 56.9768C493.965 56.9768 495.171 57.5853 496.267 58.8021C497.437 59.9474 498.022 61.1284 498.022 62.3453C498.022 63.5621 497.071 66.1032 495.171 69.9684C489.249 81.8505 486.289 91.0842 486.289 97.6695C486.289 98.8147 486.654 99.7811 487.385 100.568C488.116 101.284 488.994 101.642 490.017 101.642C492.649 101.642 495.792 99.3516 499.447 94.7705C503.103 90.1895 506.465 84.7495 509.536 78.4505C512.094 73.1537 514.763 66.3895 517.54 58.1579C517.833 57.3705 518.564 56.9768 519.734 56.9768Z" fill="white"/>
</svg>
